<svg xmlns="http://www.w3.org/2000/svg" xmlns:xlink="http://www.w3.org/1999/xlink" height="56.589" width="57.045" version="1.0"><defs><linearGradient id="c"><stop offset="0" style="stop-color:#e12b1c;stop-opacity:1"/><stop offset="1" style="stop-color:#980b00;stop-opacity:1"/></linearGradient><linearGradient id="d"><stop offset="0" style="stop-color:#1c97e1;stop-opacity:1"/><stop offset="1" style="stop-color:#006798;stop-opacity:1"/></linearGradient><linearGradient y2="387.439" x2="332.025" y1="369.98" x1="314.565" gradientUnits="userSpaceOnUse" id="g" xlink:href="#d"/><linearGradient id="e"><stop offset="0" style="stop-color:#66e11c;stop-opacity:1"/><stop offset="1" style="stop-color:#3d9800;stop-opacity:1"/></linearGradient><linearGradient id="a"><stop offset="0" style="stop-color:#fff;stop-opacity:.7265625"/><stop offset="1" style="stop-color:#fff;stop-opacity:1"/></linearGradient><linearGradient id="b"><stop offset="0" style="stop-color:#fff;stop-opacity:1"/><stop offset="1" style="stop-color:#fff;stop-opacity:0"/></linearGradient><linearGradient id="f"><stop style="stop-color:#fffd26;stop-opacity:1" offset="0"/><stop style="stop-color:#967f00;stop-opacity:1" offset="1"/></linearGradient><linearGradient y2="614.644" x2="487.883" y1="592.792" x1="467.189" gradientTransform="matrix(0 .80139 1.24783 0 -511.154 -364.355)" gradientUnits="userSpaceOnUse" id="i" xlink:href="#a"/><linearGradient y2="390.783" x2="311.274" y1="377.953" x1="302.736" gradientTransform="matrix(1.9519 0 0 1.84182 -375.118 -700.477)" gradientUnits="userSpaceOnUse" id="h" xlink:href="#b"/></defs><path transform="translate(-588.475 -688.034) scale(1.89606)" d="M339.538 378.058a13.967 13.967 0 1 1-27.934 0 13.967 13.967 0 1 1 27.934 0z" style="color:#000;fill:#166496;fill-opacity:1;fill-rule:nonzero;stroke:none;stroke-width:3.625;stroke-linecap:butt;stroke-linejoin:miter;marker:none;marker-start:none;marker-mid:none;marker-end:none;stroke-miterlimit:4;stroke-dashoffset:0;stroke-opacity:1;visibility:visible;display:inline;overflow:visible"/><path transform="matrix(1.73118 0 0 1.73118 -534.797 -625.702)" d="M339.538 378.058a13.967 13.967 0 1 1-27.934 0 13.967 13.967 0 1 1 27.934 0z" style="color:#000;fill:url(#g);fill-opacity:1;fill-rule:nonzero;stroke:#fff;stroke-width:.72204876;stroke-linecap:butt;stroke-linejoin:miter;marker:none;marker-start:none;marker-mid:none;marker-end:none;stroke-miterlimit:4;stroke-dashoffset:0;stroke-opacity:1;visibility:visible;display:inline;overflow:visible"/><path d="M242.168-7.822c-13.347 0-24.175 10.828-24.175 24.175 0 6.412 2.617 12.143 6.696 16.472 2.119-17.5 16.89-31.107 34.958-31.107.488 0 .94.099 1.422.118-4.421-5.75-11.092-9.658-18.901-9.658z" style="color:#000;fill:url(#h);fill-opacity:1;fill-rule:nonzero;stroke:none;stroke-width:.61607176;stroke-linecap:butt;stroke-linejoin:miter;marker:none;marker-start:none;marker-mid:none;marker-end:none;stroke-miterlimit:4;stroke-dashoffset:0;stroke-opacity:1;visibility:visible;display:inline;overflow:visible" transform="translate(-213.357 12.443)"/><path style="color:#000;fill:url(#i);fill-opacity:1;fill-rule:nonzero;stroke:none;stroke-width:1.75000167;stroke-linecap:round;stroke-linejoin:round;marker:none;marker-start:none;marker-mid:none;marker-end:none;stroke-miterlimit:4;stroke-dashoffset:0;stroke-opacity:1;visibility:visible;display:inline;overflow:visible" d="m226.393 12.473 4.131-4.131 11.7 11.7 11.589-11.588 4.162 4.162-15.72 15.72-15.862-15.863z" transform="translate(-213.357 12.443)"/></svg>